<svg
  xmlns="http://www.w3.org/2000/svg"
  viewBox="0 0 14.2 14.2"
  aria-labelledby="title"
  width="1em"
  height="1em"
  fill="currentColor"
>
  <title id="title">Angle Left</title>
  <path d="M7.1,13.3c-3.4,0-6.2-2.8-6.2-6.2s2.8-6.2,6.2-6.2s6.2,2.8,6.2,6.2S10.5,13.3,7.1,13.3L7.1,13.3z M7.1,0C3.2,0,0,3.2,0,7.1
	s3.2,7.1,7.1,7.1s7.1-3.2,7.1-7.1S11,0,7.1,0L7.1,0z M9.1,3.3c-0.2-0.2-0.5-0.2-0.6,0L5.1,6.7C5,6.8,4.9,6.9,5,7.1
	c0,0.1,0,0.3,0.1,0.4l3.4,3.4c0.2,0.2,0.5,0.2,0.6,0c0.2-0.2,0.2-0.5,0-0.6L5.9,7.1l3.2-3.2C9.3,3.8,9.3,3.5,9.1,3.3L9.1,3.3z"/>
</svg>
