<svg
  xmlns="http://www.w3.org/2000/svg"
  viewBox="0 0 14.2 14.2"
  aria-labelledby="title"
  width="1em"
  height="1em"
  fill="currentColor"
>
  <title id="title">Brush</title>
  <path d="M13.9,5L9.2,0.2c-0.3-0.3-0.8-0.3-1.1,0l-3.9,4c-1,1-1.1,2.6-0.4,3.7l-3.3,3.3C0.2,11.5,0,11.9,0,12.4c0,0.5,0.2,1,0.5,1.2
	c0.4,0.4,0.8,0.5,1.2,0.5S2.7,14,3,13.6l3.3-3.3c0.5,0.4,1.1,0.5,1.7,0.5c0.8,0,1.5-0.3,2.1-0.9l4-4C14.2,5.8,14.2,5.3,13.9,5
	L13.9,5z M2.4,13.2c-0.2,0.2-0.7,0.3-1.1,0.1c-0.1-0.1-0.4-0.2-0.5-0.8c0-0.2,0-0.5,0.2-0.7c0.8-0.9,3.3-3.3,3.3-3.3l1.5,1.5
	L2.4,13.2L2.4,13.2z M6.5,9.8l-2-2C3.8,7.1,3.6,6.3,4.1,5.2c0.1-0.4,1.1-1.1,1.1-1.1l5,5.1L9.7,9.6C9,10.4,7.2,10.5,6.5,9.8L6.5,9.8
	z M5.6,3.7l3-3.2l5,5l-3,3.2L5.6,3.7z"/>
<path d="M5.3,6.5c0,0.3,0.3,0.6,0.6,0.6c0.3,0,0.6-0.3,0.6-0.6c0,0,0,0,0,0c0-0.3-0.3-0.6-0.6-0.6S5.3,6.2,5.3,6.5
	C5.3,6.5,5.3,6.5,5.3,6.5z"/>
<path d="M7.1,8.3c0,0.3,0.3,0.6,0.6,0.6s0.6-0.3,0.6-0.6S8,7.7,7.7,7.7S7.1,7.9,7.1,8.3z"/>
</svg>
