<svg
  xmlns="http://www.w3.org/2000/svg"
  viewBox="0 0 13.6 14.2"
  aria-labelledby="title"
  width="1em"
  height="1em"
  fill="currentColor"
>
  <!--cube by Gregor Cresnar from the Noun Project https://thenounproject.com/search/?q=cube&i=197684 !-->
  <title id="title">Cube</title>
  <path d="M6.8,14.2c-0.7,0-1.3-0.6-1.3-1.3c0-0.1,0-0.2,0-0.3l-3.2-1.5l0,0l0,0c-0.2,0.3-0.6,0.5-1,0.5c-0.7,0-1.3-0.6-1.3-1.3
	c0-0.3,0.1-0.5,0.2-0.7C0.4,9.4,0.7,9.2,1,9.2V5.1C0.9,5,0.7,5,0.6,4.9C0,4.4-0.1,3.6,0.3,3.1s1.2-0.7,1.8-0.3
	c0.1,0.1,0.2,0.2,0.3,0.3l3.2-1.5c0,0,0-0.1,0-0.1C5.4,0.8,5.9,0.1,6.6,0s1.4,0.4,1.5,1.1c0,0.2,0,0.3,0,0.5l3.2,1.5l0,0l0,0
	c0.4-0.6,1.2-0.7,1.8-0.3c0.6,0.4,0.7,1.2,0.3,1.8c-0.2,0.3-0.5,0.4-0.8,0.5v4.1c0.2,0,0.4,0.1,0.5,0.2c0.6,0.4,0.7,1.2,0.3,1.8
	c-0.2,0.3-0.5,0.5-0.8,0.5c-0.1,0-0.1,0-0.2,0c-0.4,0-0.8-0.2-1.1-0.6L8,12.6c0.1,0.7-0.3,1.4-1,1.5C7,14.2,6.9,14.2,6.8,14.2z
	 M6.8,12.1c-0.5,0-0.8,0.4-0.8,0.8c0,0.3,0.1,0.5,0.3,0.7c0.1,0.1,0.3,0.2,0.5,0.2c0.5,0,0.8-0.4,0.8-0.8c0-0.3-0.1-0.5-0.3-0.7
	C7.1,12.1,7,12.1,6.8,12.1L6.8,12.1z M2.4,4.6C2.2,4.9,1.8,5,1.5,5.1v4.1c0.2,0,0.4,0.1,0.5,0.2c0.4,0.3,0.6,0.8,0.5,1.3l3.2,1.5
	c0,0,0,0,0-0.1l0,0c0.2-0.3,0.5-0.4,0.8-0.5v-4C6.4,7.6,6.2,7.5,6,7.4C5.6,7.1,5.4,6.6,5.5,6.1L2.4,4.6z M11.2,4.6L8,6
	c0.1,0.4,0,0.8-0.2,1.1C7.6,7.4,7.4,7.6,7,7.6v4c0.2,0,0.4,0.1,0.5,0.2c0.1,0.1,0.2,0.2,0.3,0.3l3.2-1.5c-0.1-0.4,0-0.7,0.2-1
	c0.2-0.3,0.5-0.5,0.8-0.5V5.1c-0.2,0-0.4-0.1-0.5-0.2C11.4,4.8,11.3,4.7,11.2,4.6L11.2,4.6z M1.3,9.6c-0.5,0-0.8,0.4-0.8,0.8
	c0,0.5,0.4,0.8,0.8,0.8c0.5,0,0.8-0.4,0.8-0.8C2.1,10,1.8,9.6,1.3,9.6L1.3,9.6z M12.3,9.6c-0.5,0-0.8,0.4-0.8,0.8
	c0,0.5,0.4,0.8,0.8,0.8c0.5,0,0.8-0.4,0.8-0.8c0-0.3-0.1-0.5-0.3-0.7C12.6,9.7,12.5,9.6,12.3,9.6z M6.8,5.5C6.3,5.5,6,5.9,6,6.4
	C6,6.6,6.1,6.9,6.3,7c0.2,0.1,0.4,0.2,0.6,0.1c0.4-0.1,0.8-0.5,0.7-0.9C7.5,5.8,7.2,5.5,6.8,5.5z M5.7,2L2.6,3.5
	c0.1,0.2,0.1,0.5,0,0.7l3.2,1.5l0,0l0,0c0.2-0.3,0.6-0.5,1-0.5h0c0.4,0,0.8,0.2,1,0.5l3.2-1.5c-0.1-0.2-0.1-0.4,0-0.6L7.8,2l0,0l0,0
	c-0.2,0.3-0.6,0.5-1,0.5h0C6.4,2.6,6,2.4,5.7,2L5.7,2z M1.3,3c0,0-0.1,0-0.1,0C0.8,3.1,0.4,3.5,0.5,3.9S1,4.7,1.5,4.6
	c0.4-0.1,0.7-0.5,0.7-0.9C2.1,3.3,1.7,3,1.3,3z M12.3,3c-0.5,0-0.8,0.4-0.8,0.8c0,0.2,0.1,0.4,0.2,0.5c0.3,0.3,0.8,0.4,1.2,0.1
	c0.3-0.3,0.4-0.8,0.1-1.2C12.8,3.1,12.5,3,12.3,3z M6.8,0.5C6.3,0.5,6,0.8,6,1.3c0,0.5,0.4,0.8,0.8,0.8h0c0.5,0,0.8-0.4,0.8-0.8
	c0-0.3-0.2-0.6-0.5-0.7C7,0.5,6.9,0.5,6.8,0.5z"/>
</svg>
