<svg
  xmlns="http://www.w3.org/2000/svg"
  viewBox="0 0 14.2 14.2"
  aria-labelledby="title"
  width="1em"
  height="1em"
  fill="currentColor"
>
  <title id="title">Add</title>
<path d="M7.1,0c3.9,0,7.1,3.2,7.1,7.1s-3.2,7.1-7.1,7.1S0,11,0,7.1S3.2,0,7.1,0z M7.1,1.1c-3.3,0-6,2.7-6,6s2.7,6,6,6c0,0,0,0,0,0
	c3.3,0,6-2.7,6-6S10.4,1.1,7.1,1.1z M7.1,3.7c0.3,0,0.5,0.2,0.5,0.5l0,0.1v2.3h2.3c0.3,0,0.5,0.2,0.5,0.5c0,0.3-0.2,0.5-0.5,0.5
	l-0.1,0H7.6v2.3c0,0.3-0.2,0.5-0.5,0.5c-0.3,0-0.5-0.2-0.5-0.5l0-0.1V7.6H4.3C4,7.6,3.7,7.4,3.7,7.1c0-0.3,0.2-0.5,0.5-0.5l0.1,0
	h2.3V4.3C6.6,4,6.8,3.7,7.1,3.7z"/>
</svg>
